<?xml version="1.0" encoding="UTF-8" standalone="no"?>
<!-- Created with Inkscape (http://www.inkscape.org/) -->

<svg
   xmlns:dc="http://purl.org/dc/elements/1.1/"
   xmlns:cc="http://creativecommons.org/ns#"
   xmlns:rdf="http://www.w3.org/1999/02/22-rdf-syntax-ns#"
   xmlns:svg="http://www.w3.org/2000/svg"
   xmlns="http://www.w3.org/2000/svg"
   xmlns:sodipodi="http://sodipodi.sourceforge.net/DTD/sodipodi-0.dtd"
   xmlns:inkscape="http://www.inkscape.org/namespaces/inkscape"
   width="4.2333422mm"
   height="4.2333374mm"
   viewBox="0 0 4.2333421 4.2333374"
   version="1.1"
   id="svg8"
   inkscape:version="0.92.5 (2060ec1f9f, 2020-04-08)"
   sodipodi:docname="magnifying-glass.svg">
  <defs
     id="defs2" />
  <sodipodi:namedview
     id="base"
     pagecolor="#ffffff"
     bordercolor="#666666"
     borderopacity="1.0"
     inkscape:pageopacity="0.0"
     inkscape:pageshadow="2"
     inkscape:zoom="7.9195959"
     inkscape:cx="9.8820868"
     inkscape:cy="-19.389069"
     inkscape:document-units="mm"
     inkscape:current-layer="layer1"
     showgrid="false"
     inkscape:window-width="1366"
     inkscape:window-height="698"
     inkscape:window-x="0"
     inkscape:window-y="20"
     inkscape:window-maximized="1" />
  <metadata
     id="metadata5">
    <rdf:RDF>
      <cc:Work
         rdf:about="">
        <dc:format>image/svg+xml</dc:format>
        <dc:type
           rdf:resource="http://purl.org/dc/dcmitype/StillImage" />
        <dc:title></dc:title>
      </cc:Work>
    </rdf:RDF>
  </metadata>
  <g
     inkscape:label="Layer 1"
     inkscape:groupmode="layer"
     id="layer1"
     transform="translate(285.4137,-21.070867)">
    <path
       id="path846"
       style="fill:#ffffff;fill-opacity:1;stroke-width:0.0051799"
       d="m -284.95087,21.533698 a 1.5802117,1.5802117 0 0 0 0,2.23476 1.5802117,1.5802117 0 0 0 2.23476,-7e-6 1.5802117,1.5802117 0 0 0 0,-2.234745 1.5802117,1.5802117 0 0 0 -2.23476,-8e-6 z m 0.3922,0.392193 a 1.0255678,1.0255678 0 0 1 1.45036,7e-6 1.0255678,1.0255678 0 0 1 0,1.45036 1.0255678,1.0255678 0 0 1 -1.45036,7e-6 1.0255678,1.0255678 0 0 1 0,-1.450374 z m 1.6357,2.001975 1.30024,1.300245 c 0.10146,0.101458 0.26482,0.101458 0.36628,0 0.10145,-0.101458 0.10145,-0.264817 0,-0.366275 l -1.29928,-1.299279 a 1.5802117,1.5802117 0 0 1 -0.16771,0.198568 1.5802117,1.5802117 0 0 1 -0.19953,0.166741 z"
       inkscape:connector-curvature="0" />
  </g>
</svg>
