<?xml version="1.0" encoding="UTF-8" standalone="no"?>
<!-- Created with Inkscape (http://www.inkscape.org/) -->

<svg
   width="22.38625mm"
   height="16.668751mm"
   viewBox="0 0 22.38625 16.668751"
   version="1.1"
   id="svg5"
   inkscape:version="1.1.2 (0a00cf5339, 2022-02-04)"
   sodipodi:docname="theblog_logo_red.svg"
   xmlns:inkscape="http://www.inkscape.org/namespaces/inkscape"
   xmlns:sodipodi="http://sodipodi.sourceforge.net/DTD/sodipodi-0.dtd"
   xmlns="http://www.w3.org/2000/svg"
   xmlns:svg="http://www.w3.org/2000/svg">
  <sodipodi:namedview
     id="namedview7"
     pagecolor="#ffffff"
     bordercolor="#666666"
     borderopacity="1.0"
     inkscape:pageshadow="2"
     inkscape:pageopacity="0.0"
     inkscape:pagecheckerboard="0"
     inkscape:document-units="mm"
     showgrid="false"
     inkscape:zoom="3.884119"
     inkscape:cx="23.300007"
     inkscape:cy="29.865202"
     inkscape:window-width="1366"
     inkscape:window-height="688"
     inkscape:window-x="0"
     inkscape:window-y="25"
     inkscape:window-maximized="1"
     inkscape:current-layer="layer1" />
  <defs
     id="defs2" />
  <g
     inkscape:label="Layer 1"
     inkscape:groupmode="layer"
     id="layer1"
     transform="translate(310.94938,-125.0758)">
    <path
       id="path4475"
       style="font-size:10.5833px;line-height:1.25;font-family:'Inter UI';-inkscape-font-specification:'Inter UI';letter-spacing:0px;word-spacing:0px;stroke-width:0.250316;fill:#dc3545;fill-opacity:1"
       d="m -292.09061,134.10747 c -0.36031,0 -0.71912,0.096 -1.07704,0.28797 -0.35793,0.192 -0.67447,0.49396 -0.94945,0.90641 -0.27495,0.41245 -0.46686,0.94852 -0.57592,1.6075 -0.10426,0.63053 -0.0913,1.14109 0.0392,1.53221 0.13275,0.39112 0.34604,0.67689 0.63997,0.85703 0.29629,0.18015 0.63893,0.26988 1.02766,0.26988 0.3698,0 0.70357,-0.0745 1.00225,-0.22392 0.30103,-0.1517 0.52631,-0.36604 0.67565,-0.64339 h 0.0572 l -0.15646,0.92451 c -0.0427,0.29155 -0.15789,0.49651 -0.34515,0.61503 -0.18726,0.12089 -0.4089,0.18139 -0.6649,0.18139 -0.22756,0 -0.41113,-0.0344 -0.55099,-0.10316 -0.13748,-0.0663 -0.20994,-0.17432 -0.21707,-0.32366 h -1.89154 c -0.0427,0.49779 0.1388,0.91393 0.54414,1.24816 0.40533,0.33423 1.02021,0.50112 1.8451,0.50112 0.57365,0 1.08937,-0.0839 1.54688,-0.25226 0.45985,-0.16593 0.8343,-0.40789 1.12349,-0.72553 0.29154,-0.31527 0.47303,-0.69546 0.54414,-1.14109 l 0.91032,-5.44731 h -1.96293 l -0.15644,0.95286 h -0.0425 c -0.0641,-0.27733 -0.20637,-0.51671 -0.42681,-0.71819 -0.22046,-0.20386 -0.53336,-0.30556 -0.93869,-0.30556 z m 0.48353,1.50727 c 0.27021,0 0.46214,0.11523 0.5759,0.34517 0.11617,0.22756 0.14274,0.54411 0.0787,0.94944 -0.0641,0.39822 -0.19332,0.70853 -0.38768,0.93135 -0.19202,0.22282 -0.42304,0.33441 -0.69327,0.33441 -0.27022,0 -0.46109,-0.109 -0.5725,-0.32708 -0.10905,-0.22045 -0.13194,-0.53334 -0.0679,-0.93868 0.0641,-0.40533 0.18969,-0.72188 0.37695,-0.94944 0.18964,-0.22994 0.41961,-0.34517 0.68984,-0.34517 z m -6.07261,-1.50727 c -0.59498,0 -1.12377,0.11839 -1.58599,0.35543 -0.46223,0.23468 -0.84033,0.56425 -1.13425,0.98856 -0.29392,0.42193 -0.4869,0.91265 -0.57936,1.47206 -0.0924,0.55942 -0.0617,1.0512 0.0924,1.47551 0.15406,0.42193 0.42163,0.7515 0.80326,0.98855 0.38401,0.23467 0.87262,0.35201 1.46523,0.35201 0.59259,0 1.11878,-0.11734 1.57864,-0.35201 0.46223,-0.23705 0.84138,-0.56662 1.13769,-0.98855 0.2963,-0.42431 0.49079,-0.91609 0.58323,-1.47551 0.0924,-0.55941 0.0601,-1.05013 -0.0963,-1.47206 -0.15409,-0.42431 -0.42318,-0.75388 -0.80716,-0.98856 -0.38166,-0.23704 -0.8672,-0.35543 -1.45741,-0.35543 z m -0.24201,1.42221 c 0.256,0 0.43643,0.12308 0.5407,0.3696 0.10666,0.24417 0.12546,0.58103 0.0568,1.01007 -0.0711,0.42905 -0.20149,0.76648 -0.39112,1.01299 -0.18727,0.24416 -0.40785,0.36619 -0.66149,0.36619 -0.25837,0 -0.44088,-0.12203 -0.54757,-0.36619 -0.10427,-0.24651 -0.12097,-0.58394 -0.0499,-1.01299 0.0688,-0.42904 0.19702,-0.7659 0.38429,-1.01007 0.18961,-0.24652 0.41232,-0.3696 0.66832,-0.3696 z m -3.10047,-3.17176 -1.20891,7.2819 h -1.9627 l 1.20892,-7.2819 z m -8.67563,-2.2e-4 -1.20904,7.28215 h 3.42767 c 0.52622,0 0.99555,-0.0887 1.40802,-0.26645 0.41246,-0.17779 0.74777,-0.42234 1.00616,-0.73286 0.25837,-0.31052 0.42105,-0.66464 0.48741,-1.06287 0.0569,-0.34133 0.0308,-0.64014 -0.0782,-0.89615 -0.10907,-0.25838 -0.28009,-0.45968 -0.51238,-0.60428 -0.23232,-0.14698 -0.50456,-0.2252 -0.81746,-0.23466 l 0.0143,-0.0714 c 0.4338,-0.0853 0.80354,-0.27256 1.1093,-0.56175 0.30817,-0.28919 0.49748,-0.63285 0.56859,-1.03109 0.0924,-0.55467 -0.051,-0.99689 -0.43022,-1.32638 -0.37928,-0.32949 -0.98474,-0.49427 -1.81674,-0.49427 z m 1.72093,1.5503 h 0.83893 c 0.24178,0 0.4337,0.0594 0.57592,0.17796 0.14461,0.11851 0.19936,0.29165 0.16379,0.51921 -0.0356,0.22045 -0.14714,0.39204 -0.3344,0.5153 -0.18488,0.12089 -0.40498,0.18138 -0.66101,0.18138 h -0.81107 z m -0.44099,2.61707 h 0.95286 c 0.30578,0 0.53212,0.0689 0.67908,0.20632 0.14929,0.13748 0.20299,0.3341 0.16036,0.5901 -0.0735,0.49305 -0.44371,0.7397 -1.10981,0.7397 h -0.92401 z m 13.59666,-9.69972 c -0.56416,0 -1.07368,0.11733 -1.5288,0.35201 -0.45276,0.23467 -0.82873,0.5627 -1.1274,0.98464 -0.2963,0.42193 -0.49185,0.91525 -0.58667,1.4794 -0.14934,0.88179 -0.0138,1.57124 0.40579,2.06903 0.41955,0.49778 1.06624,0.74703 1.94092,0.74703 0.76089,0 1.40127,-0.16843 1.92037,-0.50503 0.51913,-0.3366 0.87478,-0.78927 1.06681,-1.35817 h -1.79231 c -0.0853,0.15645 -0.21103,0.27589 -0.37693,0.35886 -0.16594,0.083 -0.34847,0.12466 -0.54757,0.12466 -0.29157,0 -0.50381,-0.0855 -0.63655,-0.25617 -0.13034,-0.17304 -0.17415,-0.39104 -0.13152,-0.65415 l 0.018,-0.0855 h 3.55184 l 0.0714,-0.45467 c 0.0948,-0.57837 0.0651,-1.07639 -0.089,-1.49358 -0.15171,-0.41956 -0.41244,-0.74185 -0.78223,-0.96704 -0.36742,-0.22756 -0.82633,-0.34125 -1.37624,-0.34125 z m -0.17064,1.37918 c 0.24178,0 0.42901,0.075 0.56176,0.22441 0.13512,0.14695 0.18515,0.33783 0.14959,0.5725 h -1.71407 c 0.0545,-0.24179 0.1755,-0.43524 0.36276,-0.57984 0.18964,-0.1446 0.40294,-0.21707 0.63996,-0.21707 z m -7.31029,1.08112 -0.51201,3.07205 h -1.9627 l 1.20891,-7.2819 h 1.89159 l -0.46934,2.85872 h 0.0569 q 0.26667,-0.52268 0.74668,-0.81424 0.48001,-0.29512 1.08802,-0.29512 0.57601,0 0.96001,0.26312 0.38401,0.26312 0.54402,0.72534 0.16,0.46224 0.0605,1.05958 l -0.58312,3.4845 h -1.9627 l 0.512,-3.07205 q 0.0641,-0.40534 -0.10311,-0.63645 -0.16356,-0.23112 -0.5369,-0.23112 -0.36267,0 -0.61868,0.23112 -0.25599,0.23111 -0.32,0.63645 z m -8.64725,-2.61693 0.27023,-1.59292 h 6.32899 l -0.27022,1.59292 h -2.19027 l -0.93867,5.68898 h -1.94848 l 0.93868,-5.68898 z"
       inkscape:export-filename="/home/abyan/learn/laravel/coba2/public/assets/img/logo_white.png"
       inkscape:export-xdpi="45.714283"
       inkscape:export-ydpi="45.714283" />
  </g>
</svg>
